# xmcd
#
# Track frame offsets:
#	150
#	19171
#	34487
#	52642
#	81310
#	96241
#	113957
#	141683
#	156510
#	171406
#	193370
#	208756
#	214265
#	231692
#
# Disc length: 3318 seconds
#
# Revision: 0
# Processed by: cddbd v1.5.2PL0 Copyright (c) Steve Scherf et al.
# Submitted via: EasyCDDAExtractor 10.0.3.1
#
DISCID=e10cf40e
DTITLE=Ryan Adams with Gillian Welch and David Rawlings - (2000) The Destroyer S
DTITLE=essions
DYEAR=2000
DGENRE=
TTITLE0=Born Yesterday
TTITLE1=Dreaming´s Free (I´m Alrght Today)
TTITLE2=The Poison And The Pain
TTITLE3=No Disguise
TTITLE4=Rainy Days
TTITLE5=Statuettes With Wounds
TTITLE6=String And The Wire
TTITLE7=Hey Mrs. Lovely
TTITLE8=Nighttime Gals
TTITLE9=In My Time Of Need
TTITLE10=Bartending Lines
TTITLE11=Memories Of You (False Start)
TTITLE12=Memories Of You
TTITLE13=Time (The Revelator)
EXTD=
EXTT0=
EXTT1=
EXTT2=
EXTT3=
EXTT4=
EXTT5=
EXTT6=
EXTT7=
EXTT8=
EXTT9=
EXTT10=
EXTT11=
EXTT12=
EXTT13=
PLAYORDER=
